<?xml version="1.0" encoding="utf-8"?>
<!-- Generator: Adobe Illustrator 22.0.1, SVG Export Plug-In . SVG Version: 6.00 Build 0)  -->
<svg version="1.1" id="Capa_1" xmlns="http://www.w3.org/2000/svg" xmlns:xlink="http://www.w3.org/1999/xlink" x="0px" y="0px"
	 viewBox="0 0 99.8 51.7" style="enable-background:new 0 0 99.8 51.7;" xml:space="preserve">
<style type="text/css">
	.st0{fill:#FFFFFF;}
</style>
<path class="st0" d="M25.2,19.9c-4.5,4.5-19.5-4.5-12-13.5C22.7-5,31.2,13.9,25.2,19.9z"/>
<path class="st0" d="M17.7,29c2.6,4.3-8.5,10.9-14,3.3C-3.3,22.6,14.2,23.3,17.7,29z"/>
<path class="st0" d="M40.1,15.7c-4.3,0.7-7.5-10.5,0.4-12.6C50.6,0.5,45.8,14.7,40.1,15.7z"/>
<g>
	<g>
		<path class="st0" d="M44.1,27.9h-0.6v8.3c0.3,0,0.5,0,0.7,0c1.2,0,2-0.3,2.7-1c0.6-0.7,0.9-1.7,0.9-3.2c0-1.4-0.3-2.5-0.9-3.1
			S45.3,27.9,44.1,27.9z"/>
		<path class="st0" d="M35.2,18.3c-8,1-14,10-14,15s4.7,18.8,17,16c13-3,10.7-8.1,14-14C57.2,26.3,43.2,17.3,35.2,18.3z M51.3,35.1
			c-0.8,0.9-1.8,1.5-3.2,1.8c-0.9,0.2-2.5,0.3-4.6,0.3v5.3c0,1,0.1,1.7,0.2,2c0.1,0.3,0.4,0.5,0.7,0.6c0.3,0.2,0.9,0.2,1.8,0.2V46
			h-9.8v-0.5c0.9,0,1.5-0.1,1.8-0.2c0.3-0.2,0.5-0.4,0.7-0.6c0.1-0.3,0.2-0.9,0.2-2V30.2c0-1-0.1-1.7-0.2-2
			c-0.1-0.3-0.4-0.5-0.7-0.6s-0.9-0.2-1.8-0.2v-0.5h8.4c2.8,0,4.7,0.5,5.9,1.5s1.8,2.2,1.8,3.7C52.5,33.2,52.1,34.3,51.3,35.1z"/>
	</g>
	<path class="st0" d="M59.8,40.1h-6c0.1,1.5,0.5,2.6,1.2,3.4c0.5,0.6,1.2,1,1.9,1c0.5,0,0.9-0.1,1.3-0.4s0.8-0.7,1.2-1.4l0.4,0.3
		c-0.6,1.2-1.3,2.1-2,2.6s-1.6,0.8-2.5,0.8c-1.6,0-2.9-0.6-3.7-1.9c-0.7-1-1-2.3-1-3.8c0-1.8,0.5-3.3,1.5-4.4s2.1-1.6,3.5-1.6
		c1.1,0,2.1,0.5,2.9,1.4S59.8,38.3,59.8,40.1z M57,39.3c0-1.3-0.1-2.1-0.2-2.6s-0.3-0.8-0.6-1.1c-0.2-0.1-0.4-0.2-0.7-0.2
		c-0.4,0-0.7,0.2-1,0.6c-0.5,0.7-0.7,1.6-0.7,2.9v0.4H57z"/>
	<path class="st0" d="M63.8,31v4h2.6v1.2h-2.6V43c0,0.6,0,1,0.1,1.2s0.2,0.3,0.3,0.4s0.3,0.2,0.4,0.2c0.5,0,1-0.4,1.4-1.2l0.4,0.3
		c-0.6,1.5-1.7,2.3-3.1,2.3c-0.7,0-1.3-0.2-1.8-0.6s-0.8-0.8-0.9-1.3c-0.1-0.3-0.1-1-0.1-2.2v-5.9h-1.4v-0.4c1-0.7,1.8-1.4,2.5-2.2
		s1.3-1.6,1.8-2.6H63.8z"/>
	<path class="st0" d="M70.6,36.2v7.6c0,0.7,0.1,1.2,0.2,1.4c0.3,0.3,0.7,0.4,1.4,0.4V46h-6.5v-0.4c0.5,0,0.8-0.1,1-0.2
		s0.3-0.3,0.4-0.4s0.1-0.6,0.1-1.2v-7.6h-1.6V35h1.6v-0.8l0-0.6c0-1.1,0.4-2.1,1.2-2.8s1.9-1.1,3.3-1.1c1,0,1.7,0.2,2.1,0.5
		s0.7,0.8,0.7,1.2c0,0.4-0.1,0.7-0.4,0.9s-0.7,0.4-1.1,0.4c-0.4,0-0.7-0.1-1-0.3s-0.4-0.4-0.4-0.7c0-0.1,0-0.2,0.1-0.4
		c0-0.1,0-0.3,0-0.4c0-0.2,0-0.3-0.1-0.4c-0.1-0.1-0.3-0.2-0.5-0.2c-0.2,0-0.4,0.1-0.6,0.3s-0.2,0.5-0.2,0.9l0,2.1V35h1.6v1.1H70.6z
		"/>
	<path class="st0" d="M78,30.1v13.6c0,0.8,0.1,1.3,0.3,1.5s0.5,0.3,1.1,0.4V46h-5.9v-0.4c0.5,0,0.8-0.2,1.1-0.4
		c0.2-0.2,0.2-0.7,0.2-1.4V32.4c0-0.8-0.1-1.3-0.3-1.5s-0.5-0.3-1-0.4v-0.4H78z"/>
	<path class="st0" d="M84.7,35v8.7c0,0.8,0.1,1.3,0.3,1.5s0.5,0.3,1.1,0.4V46h-5.9v-0.4c0.5,0,0.8-0.2,1.1-0.4
		c0.2-0.2,0.2-0.7,0.2-1.4v-6.4c0-0.8-0.1-1.3-0.3-1.5s-0.5-0.3-1-0.4V35H84.7z M83,29.7c0.5,0,0.9,0.2,1.3,0.5s0.5,0.8,0.5,1.3
		c0,0.5-0.2,0.9-0.5,1.3s-0.8,0.5-1.3,0.5s-0.9-0.2-1.3-0.5s-0.5-0.8-0.5-1.3c0-0.5,0.2-0.9,0.5-1.3S82.5,29.7,83,29.7z"/>
	<path class="st0" d="M93.6,39.3l1.9,3.6c0.7,1.3,1.2,2.1,1.6,2.4c0.2,0.2,0.5,0.3,0.9,0.3V46h-6.1v-0.4c0.5,0,0.8-0.1,0.9-0.2
		s0.2-0.2,0.2-0.4c0-0.2-0.1-0.6-0.4-1l-0.9-1.8l-0.8,1.2c-0.4,0.5-0.6,0.9-0.6,1C90,44.5,90,44.6,90,44.8c0,0.2,0,0.3,0.1,0.5
		s0.2,0.2,0.3,0.3s0.4,0.1,0.7,0.1V46h-4.3v-0.4c0.5,0,1-0.1,1.5-0.4s1.1-1.1,1.9-2.3l0.9-1.3L89.2,38c-0.6-1.1-1.1-1.8-1.4-2.1
		s-0.6-0.4-1-0.4V35h6.1v0.4l-0.3,0L92,35.7c-0.1,0.1-0.1,0.1-0.1,0.3c0,0.1,0,0.2,0.1,0.4c0,0.1,0.1,0.3,0.3,0.6l0.9,1.6l0.4-0.6
		c0.6-0.9,0.9-1.5,0.9-1.8c0-0.2-0.1-0.3-0.2-0.4s-0.4-0.2-0.7-0.2V35h3.9v0.4c-0.5,0-0.9,0.2-1.3,0.4s-0.9,0.8-1.4,1.6L93.6,39.3z"
		/>
</g>
</svg>
